# Blender v2.93.6 OBJ File: ''
# www.blender.org
mtllib cztery.mtl
o Numbers_v7_Numbers_v7.003
v -0.531836 0.000000 0.276045
v 0.168164 0.000000 -1.023955
v -0.531836 0.610000 0.276045
v 0.168164 0.610000 -1.023955
v 0.168164 0.000000 0.276045
v 0.168164 0.610000 0.276045
v 0.086358 0.000000 -1.874877
v -1.031836 0.000000 0.176045
v 0.086358 0.610000 -1.874877
v -1.031836 0.610000 0.176045
v 0.768164 0.000000 -1.874877
v 0.768164 0.610000 -1.874877
v 0.768164 0.000000 0.276045
v 0.768164 0.610000 0.276045
v 1.118796 0.000000 0.276045
v 1.118796 0.610000 0.276045
v 1.118796 0.000000 0.776044
v 1.118796 0.610000 0.776044
v 0.768164 0.000000 0.776044
v 0.768164 0.610000 0.776044
v 0.768164 0.000000 1.476045
v 0.768164 0.610000 1.476045
v 0.168164 0.000000 1.476045
v 0.168164 0.610000 1.476045
v 0.168164 0.000000 0.776044
v 0.168164 0.610000 0.776044
v -1.031836 0.000000 0.776044
v -1.031836 0.610000 0.776044
vn 0.8805 0.0000 0.4741
vn 0.0000 0.0000 -1.0000
vn -1.0000 0.0000 0.0000
vn -0.8780 0.0000 -0.4787
vn 1.0000 0.0000 0.0000
vn 0.0000 0.0000 1.0000
vn 0.0000 1.0000 0.0000
vn 0.0000 -1.0000 0.0000
usemtl None
s off
f 1//1 2//1 3//1
f 3//1 2//1 4//1
f 5//2 1//2 6//2
f 6//2 1//2 3//2
f 2//3 5//3 4//3
f 4//3 5//3 6//3
f 7//4 8//4 9//4
f 9//4 8//4 10//4
f 11//2 7//2 12//2
f 12//2 7//2 9//2
f 13//5 11//5 14//5
f 14//5 11//5 12//5
f 15//2 13//2 16//2
f 16//2 13//2 14//2
f 17//5 15//5 18//5
f 18//5 15//5 16//5
f 19//6 17//6 20//6
f 20//6 17//6 18//6
f 21//5 19//5 22//5
f 22//5 19//5 20//5
f 23//6 21//6 24//6
f 24//6 21//6 22//6
f 25//3 23//3 26//3
f 26//3 23//3 24//3
f 27//6 25//6 28//6
f 28//6 25//6 26//6
f 8//3 27//3 10//3
f 10//3 27//3 28//3
f 6//7 14//7 4//7
f 4//7 14//7 12//7
f 4//7 12//7 9//7
f 3//7 26//7 6//7
f 6//7 26//7 20//7
f 6//7 20//7 14//7
f 14//7 20//7 18//7
f 14//7 18//7 16//7
f 4//7 10//7 3//7
f 3//7 10//7 28//7
f 3//7 28//7 26//7
f 24//7 22//7 26//7
f 26//7 22//7 20//7
f 9//7 10//7 4//7
f 2//8 13//8 5//8
f 5//8 13//8 25//8
f 5//8 25//8 1//8
f 1//8 25//8 27//8
f 1//8 27//8 8//8
f 1//8 8//8 2//8
f 2//8 8//8 7//8
f 2//8 7//8 11//8
f 11//8 13//8 2//8
f 25//8 13//8 19//8
f 19//8 13//8 15//8
f 19//8 15//8 17//8
f 21//8 23//8 19//8
f 19//8 23//8 25//8
